<svg version="1.1" id="Layer_1" xmlns="http://www.w3.org/2000/svg" x="0" y="0" viewBox="0 0 119.1 51.1" xml:space="preserve"><style type="text/css">.st0{fill:url(#SVGID_1_)}.st1{fill:#a6a8ab}.st2{fill:#fff}.st3{fill:none;stroke:#fff;stroke-miterlimit:10}</style><path d="M16.5 27.8H1.3c-.4 0-.7.1-.9.4-.3.2-.4.5-.4.9v20.7c0 .4.1.7.4.9.2.2.6.4.9.4h5.2c.4 0 .7-.1.9-.4.2-.2.4-.6.4-.9V42c0-.4.1-.7.4-.9.2-.2.6-.4.9-.4h3.5c.4 0 .7-.1.9-.4.2-.2.4-.6.4-.9 0-.4-.1-.7-.4-.9-.2-.2-.6-.4-.9-.4H9c-.4 0-.7-.1-.9-.4-.2-.2-.4-.6-.4-.9v-5.2c0-.4.1-.7.4-.9.2-.2.6-.4.9-.4h3.5c.4 0 .7.1.9.4.2.2.4.6.4.9V33c0 .4.1.7.4.9.2.2.6.4.9.4h2.6c.4 0 .7-.1.9-.4.2-.2.4-.6.4-.9v-2.6c0-.7-.3-1.3-.8-1.8-.4-.5-1-.8-1.7-.8zm20.9 0H22.3c-.4 0-.7.1-.9.4-.2.2-.4.6-.4.9v15.5c0 .4.1.7.4.9.2.2.6.4.9.4h5.2c.4 0 .7-.1.9-.4.2-.2.4-.6.4-.9V31.7c0-.4.1-.7.4-.9.2-.2.6-.4.9-.4h3.6c.6 0 1.1.4 1.3 1.3.2.9.6 1.3 1.3 1.3h2.6c.4 0 .7-.1.9-.4.2-.2.4-.6.4-.9v-1.3c0-.7-.3-1.3-.8-1.8-.6-.5-1.3-.8-2-.8zm21 0H43.2c-.4 0-.7.1-.9.4-.2.2-.4.6-.4.9v15.5c0 .4.1.7.4.9.2.2.6.4.9.4h15.2c.7 0 1.3-.3 1.8-.8s.8-1.1.8-1.8v-2.6c0-.4-.1-.7-.4-.9-.2-.2-.6-.4-.9-.4h-2.6c-.4 0-.7.1-.9.4-.2.2-.4.6-.4.9V42c0 .4-.1.7-.4.9-.2.2-.6.4-.9.4H51c-.4 0-.7-.1-.9-.4-.2-.2-.4-.6-.4-.9v-3.9c0-.4.1-.7.4-.9.2-.2.6-.4.9-.4h7.4c.7 0 1.3-.3 1.8-.8s.8-1.1.8-1.8v-3.9c0-.7-.3-1.3-.8-1.8-.5-.4-1.1-.7-1.8-.7zM55.8 33c0 .4-.1.7-.4.9-.2.2-.6.4-.9.4H51c-.4 0-.7-.1-.9-.4-.2-.2-.4-.6-.4-.9v-1.3c0-.4.1-.7.4-.9.2-.2.6-.4.9-.4h3.5c.4 0 .7.1.9.4.2.2.4.6.4.9V33zm23.6-5.2H65.5c-.7 0-1.3.3-1.8.8s-.8 1.1-.8 1.8v5.2c0 .7.3 1.3.8 1.8s1.1.8 1.8.8h10c.4 0 .7.1.9.4.2.2.4.6.4.9V42c0 .4-.1.7-.4.9-.2.2-.6.4-.9.4H72c-.6 0-1.1-.4-1.3-1.3-.2-.9-.6-1.3-1.3-1.3h-5.2c-.4 0-.7.1-.9.4-.2.2-.4.6-.4.9v1.3c0 .7.3 1.3.8 1.8s1.1.8 1.8.8h13.9c.7 0 1.3-.3 1.8-.8s.8-1.1.8-1.8v-5.2c0-.7-.3-1.3-.8-1.8s-1.1-.8-1.8-.8H72c-.4 0-.7-.1-.9-.4-.2-.2-.4-.6-.4-.9v-2.6c0-.4.1-.7.4-.9.2-.2.6-.4.9-.4h3.5c.6 0 1.1.4 1.3 1.3.2.9.6 1.3 1.3 1.3h2.6c.4 0 .7-.1.9-.4.2-.2.4-.6.4-.9v-1.3c0-.7-.3-1.3-.8-1.8-.5-.4-1.1-.7-1.8-.7zm23.2.4c-.2-.2-.6-.4-.9-.4H93c-.4 0-.7-.1-.9-.4-.2-.2-.4-.5-.4-.9v-9.2c0-.4-.1-.7-.4-.9-.3-.3-.6-.4-.9-.4h-5.2c-.4 0-.7.1-.9.4-.2.2-.4.6-.4.9v27.3c0 .4.1.7.4.9.2.2.6.4.9.4h5.2c.4 0 .7-.1.9-.4.2-.2.4-.6.4-.9V31.7c0-.4.1-.7.4-.9.2-.2.6-.4.9-.4h3.5c.4 0 .7.1.9.4.2.2.4.6.4.9v12.9c0 .4.1.7.4.9.2.2.6.4.9.4h2.6c.4 0 .7-.1.9-.4.2-.2.4-.6.4-.9V29.1c-.1-.4-.2-.7-.4-.9z"/><g id="SVGID_21_"><linearGradient id="SVGID_1_" gradientUnits="userSpaceOnUse" x1="106.604" y1="24.556" x2="106.604" y2="2.031"><stop offset="0" stop-color="#53b04d"/><stop offset="1" stop-color="#85bb4b"/></linearGradient><path class="st0" d="M99.9 24c-1.1 0-2.2 0-3.4-.1l-1-.2-.1-1c-.9-7.7.6-14.2 3.9-17.5 1-1 5.1-4.2 13.2-4.2 1.3 0 2.7.1 4.1.3l1 .2.2.9c.8 3.7.2 13.1-3.6 17-3 3-7.8 4.6-14.3 4.6z"/><path class="st1" d="M112.6 2c1.2 0 2.6.1 4 .3h.2v.2c.8 3.5.2 12.5-3.3 16.1-2.8 2.9-7.4 4.3-13.5 4.3-1.1 0-2.2 0-3.4-.1h-.2v-.3c-1-8.7 1.2-14.2 3.7-16.6C102 4 106.2 2 112.6 2m0-2c-5.8 0-11 1.7-13.9 4.5C95 8 93.4 14.8 94.4 22.8v.3l.2 1.5 1.5.2h.4c1.2.1 2.4.1 3.5.1 6.8 0 11.8-1.7 15-4.9 4.1-4.3 4.7-13.9 3.9-18v-.2l-.3-1.3-1.3-.3h-.4c-1.6-.1-3-.2-4.3-.2z"/><path class="st2" d="M112.6 2c1.2 0 2.6.1 4 .3h.2v.2c.8 3.5.2 12.5-3.3 16.1-2.8 2.9-7.4 4.3-13.5 4.3-1.1 0-2.2 0-3.4-.1h-.2v-.3c-1-8.7 1.2-14.2 3.7-16.6C102 4 106.2 2 112.6 2m0-1c-8.2 0-12.2 3.2-13.2 4.2-3.4 3.2-4.9 9.7-4 17.4v.3l.1.7.7.1h.2c1.2.1 2.3.1 3.4.1 6.5 0 11.3-1.6 14.2-4.6 3.8-3.9 4.4-13.3 3.6-17V2l-.1-.6-.5-.1h-.2c-1.5-.2-2.9-.3-4.2-.3z"/></g><path class="st3" d="M96.4 22.8l20.4-20.5"/></svg>