<?xml version="1.0" encoding="utf-8"?>
<!-- Generator: Adobe Illustrator 19.1.0, SVG Export Plug-In . SVG Version: 6.00 Build 0)  -->
<!DOCTYPE svg PUBLIC "-//W3C//DTD SVG 1.1//EN" "http://www.w3.org/Graphics/SVG/1.1/DTD/svg11.dtd" [
	<!ENTITY st0 "fill:#FFFFFF;">
	<!ENTITY st1 "fill:#E82C2E;">
]>
<svg version="1.1" id="Layer_1" xmlns="http://www.w3.org/2000/svg" xmlns:xlink="http://www.w3.org/1999/xlink" x="0px" y="0px"
	 width="792px" height="292.7px" viewBox="0 0 792 292.7" style="enable-background:new 0 0 792 292.7;" xml:space="preserve">
<g>
	<g>
		<ellipse style="&st0;" cx="389.1" cy="111" rx="302.2" ry="63.7"/>
		<g>
			<path style="&st1;" d="M252.5,54l-42.6,108.7c-9-1.4-17.7-2.8-26-4.4c-0.1,0-0.2,0-0.3,0c-7.9-1.5-15.4-3.1-22.5-4.7
				c-0.1,0-0.3-0.1-0.4-0.1c-32.1-7.5-55.9-16.6-68.1-26.7c0,0,0,0-0.1,0c0,0,0,0,0,0c-6-5-9.3-10.2-9.3-15.6
				C83.2,86.1,152.1,64.5,252.5,54z"/>
			<path style="&st1;" d="M307.8,75.1l73.3,99.7c-39.4-0.2-76.9-2-111.3-5l0,0L307.8,75.1z"/>
			<path style="&st1;" d="M436,48.1l-42.2,65.7l-42.4-66c12.3-0.3,24.8-0.5,37.4-0.5C404.9,47.3,420.6,47.6,436,48.1z"/>
			<path style="&st1;" d="M479.8,75.1l37.6,93.8c-34,3.3-71.4,5.3-110.8,5.8L479.8,75.1z"/>
			<path style="&st1;" d="M694.4,111.1c0,20.4-45.9,38.5-117.3,50.2L535.6,55.2C630.3,66,694.4,87,694.4,111.1z"/>
		</g>
		<g>
			<polygon points="128.1,190.3 115.7,231.3 102.3,190.3 97.2,190.3 85.8,251.3 95.4,251.3 101.7,216 114.1,252.1 117.4,252.1 
				129.4,216.1 135.9,251.3 145.5,251.3 133.1,190.3 			"/>
			<path d="M182.5,239.7v-15.5c0-6.4-1.5-11.2-4.5-14.3c-3-3-7.8-4.5-14.3-4.5c-2.4,0-5,0.4-7.7,1.3c-2.7,0.9-4.8,2-6.3,3.2
				l-0.6,0.5l4.1,8.2l0.9-0.9c2.4-2.4,5.9-3.6,10.4-3.6c5.4,0,8.1,2.6,8.4,8.3c-1.6-0.5-3.2-0.7-4.5-0.7c-6.1,0-11.3,1.6-15.2,4.7
				c-4.1,3.2-6.1,7.2-6.1,11.8c0,3.9,1.3,7.2,4,9.8c2.7,2.6,5.8,4,9.5,4c5.9,0,10.6-1.7,13.8-5c0.8,1.5,1.8,2.7,3.2,3.5
				c1.7,1,4.1,1.5,7.5,1.5h0.9v-5.3l-0.5-0.3C183.5,245.4,182.5,243.2,182.5,239.7z M173,229.9v9.4c-2.8,3.3-5.8,4.9-9.4,4.9
				c-4.8,0-7-1.8-7-5.8c0-2.4,1.1-4.5,3.3-6.4c2.3-1.8,5.3-2.8,8.9-2.8C169.6,229.3,171,229.5,173,229.9z"/>
			<polygon points="230.4,206.2 219.6,206.2 209.3,220.4 200.1,206.2 189.2,206.2 204.2,228.2 187.8,251.3 199.1,251.3 209.2,236.2 
				220.4,251.3 232,251.3 214,228.2 			"/>
			<polygon points="232.9,214.5 238.8,214.5 238.8,251.3 248.3,251.3 248.3,206.2 232.9,206.2 			"/>
			<path d="M243.9,189.9c-1.6,0-2.9,0.6-4,1.6c-1.1,1.1-1.6,2.4-1.6,4c0,1.6,0.6,2.9,1.7,4c1.1,1.1,2.4,1.7,4,1.7
				c1.6,0,2.9-0.6,4-1.7c1.1-1.1,1.7-2.5,1.7-4c0-1.5-0.6-2.9-1.7-4C246.8,190.4,245.5,189.9,243.9,189.9z"/>
			<path d="M304.2,205.4c-2.6,0-5.2,0.6-7.6,1.7c-1.9,0.9-3.4,2-4.4,3.3c-2.7-3.4-7.1-5.1-13-5.1c-4.3,0-7.9,1.7-10.9,5.1l-2.2-4.3
				h-6.5v45.1h9.5v-32.6c0.7-1.2,1.8-2.3,3.3-3.4c1.6-1.1,3-1.6,4.4-1.6c2.4,0,4.4,0.6,5.8,1.6c1.4,1,2,2.5,2,4.3v31.6h9.5v-32.7
				c0.5-1.2,1.5-2.3,2.9-3.3c1.5-1,3-1.5,4.7-1.5c5.4,0,7.9,3,7.9,9.3v28.3h9.5v-29.8c0-5-1.3-9-3.9-11.8
				C312.6,206.8,308.9,205.4,304.2,205.4z"/>
			<polygon points="325.1,214.5 331,214.5 331,251.3 340.5,251.3 340.5,206.2 325.1,206.2 			"/>
			<path d="M336.1,189.9c-1.6,0-2.9,0.6-4,1.6c-1.1,1.1-1.6,2.4-1.6,4c0,1.6,0.6,2.9,1.7,4c1.1,1.1,2.4,1.7,4,1.7
				c1.6,0,2.9-0.6,4-1.7c1.1-1.1,1.7-2.5,1.7-4c0-1.5-0.6-2.9-1.7-4C339.1,190.4,337.7,189.9,336.1,189.9z"/>
			<polygon points="386.5,209.6 386.5,206.2 349.3,206.2 349.3,214.9 372.6,214.9 348.9,248.1 348.9,251.3 386.7,251.3 386.7,242.6 
				363.6,242.6 			"/>
			<path d="M412.2,205.4c-5.5,0-10.4,2-14.4,6c-4.5,4.5-6.8,10.5-6.8,17.8c0,7.1,2.2,12.8,6.6,17.1c4,3.8,8.8,5.8,14.5,5.8
				c3.9,0,7.4-0.6,10.6-1.7c2.6-0.9,4.5-2,5.8-3.3l0.5-0.5l-4.2-7.1l-0.8,0.7c-2.7,2.4-6.2,3.6-10.4,3.6c-3.6,0-6.5-1.1-8.8-3.3
				c-2.4-2.4-3.7-5.8-3.9-10.1h30.9l0.2-0.7c0.4-1.5,0.6-3.2,0.6-4.9c0-5.7-1.8-10.4-5.4-13.9C423.7,207.2,418.6,205.4,412.2,205.4z
				 M401.2,223c0.4-2.5,1.5-4.5,3.3-6.2c2.2-2.1,4.8-3.1,8-3.1c3.4,0,6,1,8,3.1c1.6,1.7,2.5,3.7,2.6,6.2H401.2z"/>
			<path d="M467.2,207.6c-2.4-1.5-5.5-2.2-9.3-2.2c-5.6,0-10.5,2.4-14.6,7.2c-4,4.7-6,10.5-6,17.2c0,6.7,1.8,12.1,5.3,16.1
				c3.5,4.1,8.2,6.1,13.9,6.1c4.4,0,8-1,10.7-2.9v2.1h9.5v-62.8h-9.5V207.6z M467.2,240.9c-0.3,0.5-1,1.1-2.6,1.8
				c-1.6,0.7-2.9,1.1-4,1.1c-8.9,0-13.3-4.8-13.3-14.7c0-4.5,1.2-8.2,3.6-11.1c2.4-2.9,5.4-4.3,9.3-4.3c3,0,5.3,1.2,7,3.7V240.9z"/>
			<polygon points="495.7,191.2 487.6,191.2 487.6,250.4 522.4,250.4 522.4,243.1 495.7,243.1 			"/>
			<path d="M536.8,190.8c-1.3,0-2.4,0.5-3.4,1.4c-0.9,0.9-1.4,2-1.4,3.4c0,1.3,0.5,2.4,1.4,3.4c0.9,0.9,2,1.4,3.3,1.4
				c1.3,0,2.4-0.5,3.4-1.4c0.9-0.9,1.4-2.1,1.4-3.4c0-1.3-0.5-2.4-1.4-3.3C539.2,191.2,538.1,190.8,536.8,190.8z"/>
			<polygon points="526.7,213.6 532.6,213.6 532.6,250.4 540.3,250.4 540.3,207.1 526.7,207.1 			"/>
			<polygon points="566.4,237.3 555,207 546.6,207 565.1,251.2 567.1,251.2 586.1,207 578.1,207 			"/>
			<path d="M599,190.8c-1.3,0-2.4,0.5-3.4,1.4c-0.9,0.9-1.4,2-1.4,3.4c0,1.3,0.5,2.4,1.4,3.4c0.9,0.9,2,1.4,3.3,1.4
				c1.3,0,2.4-0.5,3.4-1.4c0.9-0.9,1.4-2.1,1.4-3.4c0-1.3-0.5-2.4-1.4-3.3C601.5,191.2,600.4,190.8,599,190.8z"/>
			<polygon points="588.9,213.6 594.8,213.6 594.8,250.4 602.5,250.4 602.5,207.1 588.9,207.1 			"/>
			<path d="M633.8,206.3c-5.7,0-9.9,2.1-12.4,6.4l-2.4-5.6h-5.2v43.2h7.7v-32.1c1-1.5,2.5-2.8,4.4-3.9c1.9-1,3.7-1.6,5.5-1.6
				c3.3,0,5.6,0.9,7,2.8c1.4,1.8,2.1,5.1,2.1,9.7v25.2h7.7v-26.8C648.1,212.1,643.3,206.3,633.8,206.3z"/>
			<path d="M687.2,245.5c-2.4-2-5.7-3-10-3c-1.2,0-3,0.2-5.5,0.6c-2.5,0.4-4.3,0.6-5.4,0.6c-2.6,0-4-0.6-4-1.7c0-0.8,0.6-1.5,1.9-2
				c1.3-0.5,2.3-0.8,3-0.9l6.3-0.6c4.4-0.4,8-2.1,10.7-5.1c2.7-3,4.1-6.6,4.1-11c0-4.1-1-7.5-2.9-10l4.6-3.5l-5-4.7l-3.8,4.6
				c-2.4-1.8-5.7-2.6-10-2.6c-4.6,0-8.5,1.5-11.7,4.5c-3.1,3-4.7,6.8-4.7,11.3c0,7.1,3,12,9.1,14.9c-2.1,0.5-3.9,1.3-5.3,2.5
				c-1.4,1.2-2.2,2.4-2.2,3.9c0,4.6,3.1,6.9,9.2,6.9c1.3,0,3-0.2,5.3-0.6c2.3-0.4,3.8-0.6,4.7-0.6c5.1,0,7.6,1.8,7.6,5.2
				c0,1.8-1,3.3-3,4.5c-2,1.2-4.7,1.8-8.2,1.8c-3.8,0-7.9-1.5-12.4-4.5l-4.2,6.1c1.9,1.4,4.4,2.6,7.5,3.6c3.1,1,6,1.5,8.8,1.5
				c5.5,0,10-1.2,13.5-3.7c3.6-2.5,5.4-5.7,5.4-9.7C690.7,250.4,689.6,247.6,687.2,245.5z M662.8,222.2c0-2.7,0.8-5,2.5-6.9
				c1.7-1.9,3.9-2.8,6.5-2.8c2.5,0,4.5,0.9,6.2,2.8c1.7,1.9,2.5,4.2,2.5,6.9c0,3.1-0.8,5.6-2.3,7.6c-1.5,1.9-3.7,2.9-6.4,2.9
				c-2.8,0-5-1-6.6-3C663.6,227.7,662.8,225.2,662.8,222.2z"/>
		</g>
	</g>
	<g>
		<path d="M694.4,204.1c0-2,0.7-3.7,2.1-5.1c1.4-1.4,3.1-2.1,5.1-2.1c2,0,3.7,0.7,5.1,2.1c1.4,1.4,2.1,3.1,2.1,5.1
			c0,2-0.7,3.7-2.1,5.1c-1.4,1.4-3.1,2.1-5.1,2.1c-2,0-3.7-0.7-5.1-2.1C695.1,207.7,694.4,206.1,694.4,204.1z M707.6,204.1
			c0-1.7-0.6-3.1-1.8-4.2c-1.2-1.2-2.6-1.8-4.2-1.8c-1.7,0-3.1,0.6-4.2,1.8s-1.8,2.6-1.8,4.2c0,1.7,0.6,3.1,1.8,4.2
			c1.2,1.2,2.6,1.8,4.2,1.8c1.7,0,3.1-0.6,4.2-1.8C707,207.2,707.6,205.7,707.6,204.1z M703.8,208.4l-2.2-3.8h-1.3v3.8h-1.3v-8.8
			h2.3c2.1,0,3.2,0.8,3.2,2.4c0,1.1-0.6,1.9-1.7,2.4l2.4,4H703.8z M700.3,200.7v2.9c0.1,0,0.4,0,0.8,0c0.8,0,1.4-0.1,1.7-0.3
			c0.3-0.2,0.4-0.6,0.4-1.2c0-1-0.6-1.5-1.9-1.5h-0.5L700.3,200.7z"/>
	</g>
</g>
<g>
</g>
<g>
</g>
<g>
</g>
<g>
</g>
<g>
</g>
<g>
</g>
</svg>
